# xmcd
#
# Track frame offsets: 
#        150
#        40702
#        46372
#        73267
#        96022
#        99932
#        168202
#        172077
#        209642
#        244072
#        247385
#
# Disc length: 3835 seconds
#
# Revision: 14
# Processed by: cddbd v1.5.2PL0 Copyright (c) Steve Scherf et al.
# Submitted via: ExactAudioCopy v0.99pb4
#
DISCID=9c0ef90b
DTITLE=Albert King With Stevie Ray Vaughan - In Session
DYEAR=1999
DGENRE=Blues
TTITLE0=Call It Stormy Monday
TTITLE1="Old Times"
TTITLE2=Pride And Joy
TTITLE3=Ask Me No Questions
TTITLE4="Pep Talk"
TTITLE5=Blues At Sunrise
TTITLE6="Turn It Over"
TTITLE7=Overall Junction
TTITLE8=Match Box Blues
TTITLE9="Who Is Stevie?"
TTITLE10=Don't Lie To Me
EXTD=
EXTT0=
EXTT1=
EXTT2=
EXTT3=
EXTT4=
EXTT5=
EXTT6=
EXTT7=
EXTT8=
EXTT9=
EXTT10=
PLAYORDER=
